<svg xmlns="http://www.w3.org/2000/svg" width="61.477" height="61.476" viewBox="0 0 61.477 61.476">
  <g id="_x31_8-tripadvisor_x2C__travel" transform="translate(-16 -16)">
    <g id="Group_1" data-name="Group 1" transform="translate(16 16)">
      <path id="Path_7" data-name="Path 7" d="M202.85,171.8a18.536,18.536,0,0,0-19.127,0,10.747,10.747,0,0,1,9.563,10.63A10.747,10.747,0,0,1,202.85,171.8Z" transform="translate(-162.242 -149.528)" fill="#fff"/>
      <path id="Path_8" data-name="Path 8" d="M119.632,210.01a8.053,8.053,0,1,0,8.059,8.053A8.08,8.08,0,0,0,119.632,210.01Zm0,13.422a5.369,5.369,0,1,1,5.373-5.369A5.376,5.376,0,0,1,119.632,223.432Z" transform="translate(-99.333 -185.162)" fill="#fff"/>
      <path id="Path_9" data-name="Path 9" d="M324,251.929a2.684,2.684,0,1,0,2.686,2.684A2.688,2.688,0,0,0,324,251.929Zm0,4.026a1.342,1.342,0,1,1,1.343-1.342A1.343,1.343,0,0,1,324,255.955Z" transform="translate(-282.212 -221.712)" fill="#fff"/>
      <path id="Path_10" data-name="Path 10" d="M156.207,251.929a2.684,2.684,0,1,0,2.686,2.684A2.69,2.69,0,0,0,156.207,251.929Zm0,4.026a1.342,1.342,0,1,1,1.344-1.342A1.342,1.342,0,0,1,156.207,255.955Z" transform="translate(-135.908 -221.712)" fill="#fff"/>
      <path id="Path_11" data-name="Path 11" d="M62.107,16H31.369A15.369,15.369,0,0,0,16,31.369V62.107A15.369,15.369,0,0,0,31.369,77.476H62.107A15.369,15.369,0,0,0,77.476,62.107V31.369A15.369,15.369,0,0,0,62.107,16Zm6.427,32.9a10.715,10.715,0,0,1-19.314,6.416l-2.068,4.321L44.9,55.29A10.72,10.72,0,0,1,25.555,48.9a10.457,10.457,0,0,1,2.417-6.687,16.6,16.6,0,0,0-2.418-4.057h7.575a21.258,21.258,0,0,1,27.83,0h7.575a16.6,16.6,0,0,0-2.418,4.057A10.457,10.457,0,0,1,68.535,48.9Z" transform="translate(-16 -16)" fill="#fff"/>
      <path id="Path_12" data-name="Path 12" d="M287.425,210.01a8.053,8.053,0,1,0,8.059,8.053A8.08,8.08,0,0,0,287.425,210.01Zm0,13.422a5.369,5.369,0,1,1,5.372-5.369A5.376,5.376,0,0,1,287.425,223.432Z" transform="translate(-245.635 -185.162)" fill="#fff"/>
    </g>
  </g>
</svg>
