<svg id="iconfinder_facebook-logo_1269914" xmlns="http://www.w3.org/2000/svg" width="59" height="59" viewBox="0 0 59 59">
  <g id="Group_2" data-name="Group 2">
    <path id="Facebook__x28_alt_x29_" d="M59,9.833A10.175,10.175,0,0,0,49.167,0H9.833A10.175,10.175,0,0,0,0,9.833V49.167A10.175,10.175,0,0,0,9.833,59H29.5V36.711H22.289V26.878H29.5v-3.8c0-6.621,4.982-12.587,11.079-12.587h7.932v9.833H40.579a2.418,2.418,0,0,0-1.9,2.622v3.933h9.833v9.833H38.678V59H49.167A10.175,10.175,0,0,0,59,49.167Z" fill="#fff"/>
  </g>
</svg>
