<svg id="location_on-24px" xmlns="http://www.w3.org/2000/svg" width="33.469" height="33.469" viewBox="0 0 33.469 33.469">
  <path id="Path_1" data-name="Path 1" d="M16.734,2C10.247,2,5,6.612,5,12.314c0,7.735,11.734,19.155,11.734,19.155S28.469,20.049,28.469,12.314C28.469,6.612,23.222,2,16.734,2Zm0,14a3.963,3.963,0,0,1-4.191-3.684A3.963,3.963,0,0,1,16.734,8.63a3.963,3.963,0,0,1,4.191,3.684A3.963,3.963,0,0,1,16.734,16Z" fill="#fff"/>
  <path id="Path_2" data-name="Path 2" d="M0,0H33.469V33.469H0Z" fill="none"/>
</svg>
