<svg xmlns="http://www.w3.org/2000/svg" xmlns:xlink="http://www.w3.org/1999/xlink" width="32.67" height="32.67" viewBox="0 0 32.67 32.67">
  <defs>
    <clipPath id="clip-path">
      <rect width="32.67" height="32.67" fill="none"/>
    </clipPath>
  </defs>
  <g id="local_phone-24px" clip-path="url(#clip-path)">
    <path id="Path_5" data-name="Path 5" d="M0,0H32.67V32.67H0Z" fill="none"/>
    <path id="Path_6" data-name="Path 6" d="M8.364,14.542a22.445,22.445,0,0,0,9.764,9.764l3.26-3.26a1.473,1.473,0,0,1,1.511-.356,16.9,16.9,0,0,0,5.29.845,1.486,1.486,0,0,1,1.482,1.482v5.171a1.486,1.486,0,0,1-1.482,1.482A25.186,25.186,0,0,1,3,4.482,1.486,1.486,0,0,1,4.482,3H9.667a1.486,1.486,0,0,1,1.482,1.482,16.832,16.832,0,0,0,.845,5.29,1.487,1.487,0,0,1-.37,1.511Z" fill="#fff"/>
  </g>
</svg>
