<svg id="phone_iphone-24px" xmlns="http://www.w3.org/2000/svg" width="35.67" height="35.67" viewBox="0 0 35.67 35.67">
  <path id="Path_3" data-name="Path 3" d="M24.926,1H9.744C7.125,1,5,2.714,5,4.826V30.844c0,2.112,2.125,3.826,4.744,3.826H24.926c2.619,0,4.744-1.714,4.744-3.826V4.826C29.67,2.714,27.545,1,24.926,1ZM17.335,33.139a2.612,2.612,0,0,1-2.847-2.3,2.612,2.612,0,0,1,2.847-2.3,2.612,2.612,0,0,1,2.847,2.3A2.612,2.612,0,0,1,17.335,33.139Zm8.54-6.122H8.8V5.591H25.875Z" transform="translate(0)" fill="#fff"/>
  <path id="Path_4" data-name="Path 4" d="M0,0H35.67V35.67H0Z" fill="none"/>
</svg>
